<svg width="80" height="74" viewBox="0 0 80 74" fill="none" xmlns="http://www.w3.org/2000/svg">
<mask id="path-1-inside-1" fill="white">
<path d="M10.4348 10.4348V0H17.3913V10.4348H27.8261V17.3913H17.3913V27.8261H10.4348V17.3913H0V10.4348H10.4348ZM20.8696 31.3043V20.8696H31.3043V10.4348H55.6522L62.0174 17.3913H73.0435C76.8696 17.3913 80 20.5217 80 24.3478V66.087C80 69.913 76.8696 73.0435 73.0435 73.0435H17.3913C13.5652 73.0435 10.4348 69.913 10.4348 66.087V31.3043H20.8696ZM45.2174 62.6087C54.8174 62.6087 62.6087 54.8174 62.6087 45.2174C62.6087 35.6174 54.8174 27.8261 45.2174 27.8261C35.6174 27.8261 27.8261 35.6174 27.8261 45.2174C27.8261 54.8174 35.6174 62.6087 45.2174 62.6087ZM34.087 45.2174C34.087 51.3739 39.0609 56.3478 45.2174 56.3478C51.3739 56.3478 56.3478 51.3739 56.3478 45.2174C56.3478 39.0609 51.3739 34.087 45.2174 34.087C39.0609 34.087 34.087 39.0609 34.087 45.2174Z"/>
</mask>
<path d="M10.4348 10.4348V0H17.3913V10.4348H27.8261V17.3913H17.3913V27.8261H10.4348V17.3913H0V10.4348H10.4348ZM20.8696 31.3043V20.8696H31.3043V10.4348H55.6522L62.0174 17.3913H73.0435C76.8696 17.3913 80 20.5217 80 24.3478V66.087C80 69.913 76.8696 73.0435 73.0435 73.0435H17.3913C13.5652 73.0435 10.4348 69.913 10.4348 66.087V31.3043H20.8696ZM45.2174 62.6087C54.8174 62.6087 62.6087 54.8174 62.6087 45.2174C62.6087 35.6174 54.8174 27.8261 45.2174 27.8261C35.6174 27.8261 27.8261 35.6174 27.8261 45.2174C27.8261 54.8174 35.6174 62.6087 45.2174 62.6087ZM34.087 45.2174C34.087 51.3739 39.0609 56.3478 45.2174 56.3478C51.3739 56.3478 56.3478 51.3739 56.3478 45.2174C56.3478 39.0609 51.3739 34.087 45.2174 34.087C39.0609 34.087 34.087 39.0609 34.087 45.2174Z" fill="black"/>
<path d="M10.4348 10.4348V10.9348C10.7109 10.9348 10.9348 10.7109 10.9348 10.4348H10.4348ZM10.4348 0V-0.5C10.1586 -0.5 9.93478 -0.276142 9.93478 0L10.4348 0ZM17.3913 0H17.8913C17.8913 -0.276142 17.6674 -0.5 17.3913 -0.5V0ZM17.3913 10.4348H16.8913C16.8913 10.7109 17.1152 10.9348 17.3913 10.9348V10.4348ZM27.8261 10.4348H28.3261C28.3261 10.1586 28.1022 9.93478 27.8261 9.93478V10.4348ZM27.8261 17.3913V17.8913C28.1022 17.8913 28.3261 17.6674 28.3261 17.3913H27.8261ZM17.3913 17.3913V16.8913C17.1152 16.8913 16.8913 17.1152 16.8913 17.3913H17.3913ZM17.3913 27.8261V28.3261C17.6674 28.3261 17.8913 28.1022 17.8913 27.8261H17.3913ZM10.4348 27.8261H9.93478C9.93478 28.1022 10.1586 28.3261 10.4348 28.3261V27.8261ZM10.4348 17.3913H10.9348C10.9348 17.1152 10.7109 16.8913 10.4348 16.8913V17.3913ZM0 17.3913H-0.5C-0.5 17.6674 -0.276142 17.8913 0 17.8913L0 17.3913ZM0 10.4348V9.93478C-0.276142 9.93478 -0.5 10.1586 -0.5 10.4348H0ZM20.8696 31.3043V31.8043C21.1457 31.8043 21.3696 31.5805 21.3696 31.3043H20.8696ZM20.8696 20.8696V20.3696C20.5934 20.3696 20.3696 20.5934 20.3696 20.8696H20.8696ZM31.3043 20.8696V21.3696C31.5805 21.3696 31.8043 21.1457 31.8043 20.8696H31.3043ZM31.3043 10.4348V9.93478C31.0282 9.93478 30.8043 10.1586 30.8043 10.4348H31.3043ZM55.6522 10.4348L56.0211 10.0973C55.9263 9.99374 55.7925 9.93478 55.6522 9.93478V10.4348ZM62.0174 17.3913L61.6485 17.7288C61.7432 17.8323 61.8771 17.8913 62.0174 17.8913V17.3913ZM10.4348 31.3043V30.8043C10.1586 30.8043 9.93478 31.0282 9.93478 31.3043H10.4348ZM10.4348 9.93478H7.82609V10.9348H10.4348V9.93478ZM2.6087 9.93478H0V10.9348H2.6087V9.93478ZM-0.5 10.4348V12.1739H0.5V10.4348H-0.5ZM-0.5 15.6522V17.3913H0.5V15.6522H-0.5ZM0 17.8913H2.6087V16.8913H0V17.8913ZM7.82609 17.8913H10.4348V16.8913H7.82609V17.8913ZM9.93478 17.3913V20H10.9348V17.3913H9.93478ZM9.93478 25.2174V27.8261H10.9348V25.2174H9.93478ZM10.4348 28.3261H12.1739V27.3261H10.4348V28.3261ZM15.6522 28.3261H17.3913V27.3261H15.6522V28.3261ZM17.8913 27.8261V25.2174H16.8913V27.8261H17.8913ZM17.8913 20V17.3913H16.8913V20H17.8913ZM17.3913 17.8913H20V16.8913H17.3913V17.8913ZM25.2174 17.8913H27.8261V16.8913H25.2174V17.8913ZM28.3261 17.3913V15.6522H27.3261V17.3913H28.3261ZM28.3261 12.1739V10.4348H27.3261V12.1739H28.3261ZM27.8261 9.93478H25.2174V10.9348H27.8261V9.93478ZM20 9.93478H17.3913V10.9348H20V9.93478ZM17.8913 10.4348V7.82609H16.8913V10.4348H17.8913ZM17.8913 2.6087V0H16.8913V2.6087H17.8913ZM17.3913 -0.5H15.6522V0.5H17.3913V-0.5ZM12.1739 -0.5H10.4348V0.5H12.1739V-0.5ZM9.93478 0V2.6087H10.9348V0H9.93478ZM9.93478 7.82609V10.4348H10.9348V7.82609H9.93478ZM20.8696 30.8043H18.2609V31.8043H20.8696V30.8043ZM13.0435 30.8043H10.4348V31.8043H13.0435V30.8043ZM9.93478 31.3043V40H10.9348V31.3043H9.93478ZM9.93478 57.3913V66.087H10.9348V57.3913H9.93478ZM9.93478 66.087C9.93478 67.0954 10.1378 68.0595 10.505 68.9397L11.4279 68.5546C11.1104 67.7936 10.9348 66.9602 10.9348 66.087H9.93478ZM14.5386 72.9732C15.4187 73.3405 16.3829 73.5435 17.3913 73.5435V72.5435C16.5181 72.5435 15.6846 72.3679 14.9237 72.0504L14.5386 72.9732ZM17.3913 73.5435H24.3478V72.5435H17.3913V73.5435ZM38.2609 73.5435H52.1739V72.5435H38.2609V73.5435ZM66.087 73.5435H73.0435V72.5435H66.087V73.5435ZM73.0435 73.5435C74.0519 73.5435 75.0161 73.3405 75.8962 72.9732L75.5111 72.0504C74.7502 72.3679 73.9167 72.5435 73.0435 72.5435V73.5435ZM79.9298 68.9397C80.297 68.0595 80.5 67.0954 80.5 66.087H79.5C79.5 66.9602 79.3244 67.7936 79.0069 68.5546L79.9298 68.9397ZM80.5 66.087V55.6522H79.5V66.087H80.5ZM80.5 34.7826V24.3478H79.5V34.7826H80.5ZM80.5 24.3478C80.5 23.3394 80.297 22.3752 79.9298 21.4951L79.0069 21.8802C79.3244 22.6411 79.5 23.4746 79.5 24.3478H80.5ZM75.8962 17.4615C75.0161 17.0943 74.0519 16.8913 73.0435 16.8913V17.8913C73.9167 17.8913 74.7502 18.0669 75.5111 18.3844L75.8962 17.4615ZM73.0435 16.8913H70.287V17.8913H73.0435V16.8913ZM64.7739 16.8913H62.0174V17.8913H64.7739V16.8913ZM62.3863 17.0538L60.795 15.3146L60.0572 15.9897L61.6485 17.7288L62.3863 17.0538ZM57.6124 11.8364L56.0211 10.0973L55.2833 10.7723L56.8746 12.5114L57.6124 11.8364ZM55.6522 9.93478H49.5652V10.9348H55.6522V9.93478ZM37.3913 9.93478H31.3043V10.9348H37.3913V9.93478ZM30.8043 10.4348V13.0435H31.8043V10.4348H30.8043ZM30.8043 18.2609V20.8696H31.8043V18.2609H30.8043ZM31.3043 20.3696H28.6957V21.3696H31.3043V20.3696ZM23.4783 20.3696H20.8696V21.3696H23.4783V20.3696ZM20.3696 20.8696V23.4783H21.3696V20.8696H20.3696ZM20.3696 28.6957V31.3043H21.3696V28.6957H20.3696ZM45.2174 62.1087C42.927 62.1087 40.7437 61.6523 38.7527 60.826L38.3694 61.7497C40.4797 62.6254 42.7931 63.1087 45.2174 63.1087V62.1087ZM29.6087 51.6821C28.7825 49.6911 28.3261 47.5078 28.3261 45.2174H27.3261C27.3261 47.6417 27.8093 49.9551 28.6851 52.0654L29.6087 51.6821ZM28.3261 45.2174C28.3261 42.927 28.7825 40.7437 29.6087 38.7527L28.6851 38.3694C27.8093 40.4797 27.3261 42.7931 27.3261 45.2174H28.3261ZM38.7527 29.6087C40.7437 28.7825 42.927 28.3261 45.2174 28.3261V27.3261C42.7931 27.3261 40.4797 27.8093 38.3694 28.6851L38.7527 29.6087ZM45.2174 28.3261C47.5078 28.3261 49.6911 28.7825 51.6821 29.6087L52.0654 28.6851C49.9551 27.8093 47.6417 27.3261 45.2174 27.3261V28.3261ZM60.826 38.7527C61.6523 40.7437 62.1087 42.927 62.1087 45.2174H63.1087C63.1087 42.7931 62.6254 40.4797 61.7497 38.3694L60.826 38.7527ZM62.1087 45.2174C62.1087 47.5078 61.6523 49.6911 60.826 51.6821L61.7497 52.0654C62.6254 49.9551 63.1087 47.6417 63.1087 45.2174H62.1087ZM51.6821 60.826C49.6911 61.6523 47.5078 62.1087 45.2174 62.1087V63.1087C47.6417 63.1087 49.9551 62.6254 52.0654 61.7497L51.6821 60.826ZM34.587 45.2174C34.587 43.7734 34.8731 42.3989 35.3913 41.1464L34.4673 40.764C33.8997 42.1359 33.587 43.6402 33.587 45.2174H34.587ZM41.1463 35.3913C42.3989 34.8731 43.7734 34.587 45.2174 34.587V33.587C43.6402 33.587 42.1359 33.8997 40.764 34.4673L41.1463 35.3913ZM45.2174 34.587C46.6614 34.587 48.0359 34.8731 49.2884 35.3913L49.6707 34.4673C48.2989 33.8997 46.7946 33.587 45.2174 33.587V34.587ZM55.0435 41.1464C55.5617 42.3989 55.8478 43.7734 55.8478 45.2174H56.8478C56.8478 43.6402 56.5351 42.1359 55.9675 40.764L55.0435 41.1464ZM55.8478 45.2174C55.8478 46.6614 55.5617 48.0359 55.0435 49.2884L55.9675 49.6707C56.5351 48.2989 56.8478 46.7946 56.8478 45.2174H55.8478ZM49.2884 55.0435C48.0359 55.5617 46.6614 55.8478 45.2174 55.8478V56.8478C46.7946 56.8478 48.2989 56.5351 49.6707 55.9675L49.2884 55.0435ZM45.2174 55.8478C43.7734 55.8478 42.3989 55.5617 41.1463 55.0435L40.764 55.9675C42.1359 56.5351 43.6402 56.8478 45.2174 56.8478V55.8478ZM35.3913 49.2884C34.8731 48.0359 34.587 46.6614 34.587 45.2174H33.587C33.587 46.7946 33.8997 48.2989 34.4673 49.6707L35.3913 49.2884ZM10.4348 10.4348V11.4348C10.9871 11.4348 11.4348 10.9871 11.4348 10.4348H10.4348ZM10.4348 0V-1C9.8825 -1 9.43478 -0.552285 9.43478 0L10.4348 0ZM17.3913 0H18.3913C18.3913 -0.552285 17.9436 -1 17.3913 -1V0ZM17.3913 10.4348H16.3913C16.3913 10.9871 16.839 11.4348 17.3913 11.4348V10.4348ZM27.8261 10.4348H28.8261C28.8261 9.8825 28.3784 9.43478 27.8261 9.43478V10.4348ZM27.8261 17.3913V18.3913C28.3784 18.3913 28.8261 17.9436 28.8261 17.3913H27.8261ZM17.3913 17.3913V16.3913C16.839 16.3913 16.3913 16.839 16.3913 17.3913H17.3913ZM17.3913 27.8261V28.8261C17.9436 28.8261 18.3913 28.3784 18.3913 27.8261H17.3913ZM10.4348 27.8261H9.43478C9.43478 28.3784 9.8825 28.8261 10.4348 28.8261V27.8261ZM10.4348 17.3913H11.4348C11.4348 16.839 10.9871 16.3913 10.4348 16.3913V17.3913ZM0 17.3913H-1C-1 17.9436 -0.552285 18.3913 0 18.3913L0 17.3913ZM0 10.4348V9.43478C-0.552285 9.43478 -1 9.8825 -1 10.4348H0ZM20.8696 31.3043V32.3043C21.4218 32.3043 21.8696 31.8566 21.8696 31.3043H20.8696ZM20.8696 20.8696V19.8696C20.3173 19.8696 19.8696 20.3173 19.8696 20.8696H20.8696ZM31.3043 20.8696V21.8696C31.8566 21.8696 32.3043 21.4219 32.3043 20.8696H31.3043ZM31.3043 10.4348V9.43478C30.7521 9.43478 30.3043 9.8825 30.3043 10.4348H31.3043ZM55.6522 10.4348L56.3899 9.75973C56.2005 9.55269 55.9328 9.43478 55.6522 9.43478V10.4348ZM62.0174 17.3913L61.2796 18.0664C61.4691 18.2734 61.7368 18.3913 62.0174 18.3913V17.3913ZM10.4348 31.3043V30.3043C9.8825 30.3043 9.43478 30.7521 9.43478 31.3043H10.4348ZM10.4348 9.43478H7.82609V11.4348H10.4348V9.43478ZM2.6087 9.43478H0V11.4348H2.6087V9.43478ZM-1 10.4348V12.1739H1V10.4348H-1ZM-1 15.6522V17.3913H1V15.6522H-1ZM0 18.3913H2.6087V16.3913H0V18.3913ZM7.82609 18.3913H10.4348V16.3913H7.82609V18.3913ZM9.43478 17.3913V20H11.4348V17.3913H9.43478ZM9.43478 25.2174V27.8261H11.4348V25.2174H9.43478ZM10.4348 28.8261H12.1739V26.8261H10.4348V28.8261ZM15.6522 28.8261H17.3913V26.8261H15.6522V28.8261ZM18.3913 27.8261V25.2174H16.3913V27.8261H18.3913ZM18.3913 20V17.3913H16.3913V20H18.3913ZM17.3913 18.3913H20V16.3913H17.3913V18.3913ZM25.2174 18.3913H27.8261V16.3913H25.2174V18.3913ZM28.8261 17.3913V15.6522H26.8261V17.3913H28.8261ZM28.8261 12.1739V10.4348H26.8261V12.1739H28.8261ZM27.8261 9.43478H25.2174V11.4348H27.8261V9.43478ZM20 9.43478H17.3913V11.4348H20V9.43478ZM18.3913 10.4348V7.82609H16.3913V10.4348H18.3913ZM18.3913 2.6087V0H16.3913V2.6087H18.3913ZM17.3913 -1H15.6522V1H17.3913V-1ZM12.1739 -1H10.4348V1H12.1739V-1ZM9.43478 0V2.6087H11.4348V0H9.43478ZM9.43478 7.82609V10.4348H11.4348V7.82609H9.43478ZM20.8696 30.3043H18.2609V32.3043H20.8696V30.3043ZM13.0435 30.3043H10.4348V32.3043H13.0435V30.3043ZM9.43478 31.3043V40H11.4348V31.3043H9.43478ZM9.43478 57.3913V66.087H11.4348V57.3913H9.43478ZM9.43478 66.087C9.43478 67.163 9.65146 68.1925 10.0436 69.1322L11.8893 68.362C11.5967 67.6607 11.4348 66.8926 11.4348 66.087H9.43478ZM14.3461 73.4347C15.2858 73.8268 16.3153 74.0435 17.3913 74.0435V72.0435C16.5857 72.0435 15.8176 71.8816 15.1162 71.5889L14.3461 73.4347ZM17.3913 74.0435H24.3478V72.0435H17.3913V74.0435ZM38.2609 74.0435H52.1739V72.0435H38.2609V74.0435ZM66.087 74.0435H73.0435V72.0435H66.087V74.0435ZM73.0435 74.0435C74.1195 74.0435 75.149 73.8268 76.0887 73.4347L75.3185 71.5889C74.6172 71.8816 73.8491 72.0435 73.0435 72.0435V74.0435ZM80.3912 69.1322C80.7833 68.1925 81 67.163 81 66.087H79C79 66.8926 78.8381 67.6607 78.5454 68.362L80.3912 69.1322ZM81 66.087V55.6522H79V66.087H81ZM81 34.7826V24.3478H79V34.7826H81ZM81 24.3478C81 23.2718 80.7833 22.2423 80.3912 21.3026L78.5454 22.0728C78.8381 22.7741 79 23.5422 79 24.3478H81ZM76.0887 17.0001C75.149 16.608 74.1195 16.3913 73.0435 16.3913V18.3913C73.8491 18.3913 74.6172 18.5532 75.3185 18.8459L76.0887 17.0001ZM73.0435 16.3913H70.287V18.3913H73.0435V16.3913ZM64.7739 16.3913H62.0174V18.3913H64.7739V16.3913ZM62.7552 16.7162L61.1639 14.9771L59.6883 16.3272L61.2796 18.0664L62.7552 16.7162ZM57.9812 11.4989L56.3899 9.75973L54.9144 11.1098L56.5057 12.849L57.9812 11.4989ZM55.6522 9.43478H49.5652V11.4348H55.6522V9.43478ZM37.3913 9.43478H31.3043V11.4348H37.3913V9.43478ZM30.3043 10.4348V13.0435H32.3043V10.4348H30.3043ZM30.3043 18.2609V20.8696H32.3043V18.2609H30.3043ZM31.3043 19.8696H28.6957V21.8696H31.3043V19.8696ZM23.4783 19.8696H20.8696V21.8696H23.4783V19.8696ZM19.8696 20.8696V23.4783H21.8696V20.8696H19.8696ZM19.8696 28.6957V31.3043H21.8696V28.6957H19.8696ZM45.2174 61.6087C42.9939 61.6087 40.8757 61.1658 38.9444 60.3642L38.1777 62.2115C40.3477 63.112 42.7261 63.6087 45.2174 63.6087V61.6087ZM30.0706 51.4904C29.269 49.559 28.8261 47.4408 28.8261 45.2174H26.8261C26.8261 47.7087 27.3228 50.0871 28.2233 52.257L30.0706 51.4904ZM28.8261 45.2174C28.8261 42.994 29.269 40.8757 30.0706 38.9444L28.2233 38.1777C27.3228 40.3477 26.8261 42.7261 26.8261 45.2174H28.8261ZM38.9444 30.0706C40.8757 29.269 42.994 28.8261 45.2174 28.8261V26.8261C42.7261 26.8261 40.3477 27.3228 38.1777 28.2233L38.9444 30.0706ZM45.2174 28.8261C47.4408 28.8261 49.559 29.269 51.4904 30.0706L52.257 28.2233C50.0871 27.3228 47.7087 26.8261 45.2174 26.8261V28.8261ZM60.3642 38.9444C61.1658 40.8757 61.6087 42.994 61.6087 45.2174H63.6087C63.6087 42.7261 63.112 40.3477 62.2115 38.1778L60.3642 38.9444ZM61.6087 45.2174C61.6087 47.4408 61.1658 49.559 60.3642 51.4904L62.2115 52.257C63.112 50.0871 63.6087 47.7087 63.6087 45.2174H61.6087ZM51.4904 60.3642C49.559 61.1658 47.4408 61.6087 45.2174 61.6087V63.6087C47.7087 63.6087 50.0871 63.112 52.257 62.2115L51.4904 60.3642ZM35.087 45.2174C35.087 43.84 35.3598 42.5304 35.8533 41.3375L34.0053 40.5729C33.413 42.0044 33.087 43.5736 33.087 45.2174H35.087ZM41.3375 35.8533C42.5304 35.3598 43.84 35.087 45.2174 35.087V33.087C43.5736 33.087 42.0044 33.413 40.5729 34.0053L41.3375 35.8533ZM45.2174 35.087C46.5948 35.087 47.9044 35.3598 49.0973 35.8533L49.8619 34.0053C48.4304 33.413 46.8612 33.087 45.2174 33.087V35.087ZM54.5814 41.3375C55.075 42.5304 55.3478 43.84 55.3478 45.2174H57.3478C57.3478 43.5736 57.0218 42.0044 56.4295 40.5729L54.5814 41.3375ZM55.3478 45.2174C55.3478 46.5948 55.075 47.9044 54.5814 49.0973L56.4295 49.8619C57.0218 48.4304 57.3478 46.8612 57.3478 45.2174H55.3478ZM49.0973 54.5814C47.9044 55.075 46.5948 55.3478 45.2174 55.3478V57.3478C46.8612 57.3478 48.4304 57.0218 49.8619 56.4295L49.0973 54.5814ZM45.2174 55.3478C43.84 55.3478 42.5304 55.075 41.3375 54.5814L40.5729 56.4295C42.0044 57.0218 43.5736 57.3478 45.2174 57.3478V55.3478ZM35.8533 49.0973C35.3598 47.9044 35.087 46.5948 35.087 45.2174H33.087C33.087 46.8612 33.413 48.4304 34.0053 49.8619L35.8533 49.0973Z" fill="black" mask="url(#path-1-inside-1)"/>
</svg>
